inDegrees=no
num_controls=7
num_derivatives=13
num_iterations=144
num_multipliers=7
num_parameters=0
num_slacks=7
num_states=26
objective=0.444911
objective_accelerations=0.058640
objective_balance=0.003495
objective_effort=0.023213
objective_height=0.354095
objective_ligament=0.005467
solver_duration=2068.141815
status=Solve_Succeeded
success=true
DataType=double
version=3
OpenSimVersion=4.5
endheader
time	/jointset/ground_pelvis/pelvis_tilt/value	/jointset/ground_pelvis/pelvis_tx/value	/jointset/ground_pelvis/pelvis_ty/value	/jointset/hip_l/hip_flexion_l/value	/jointset/hip_l/hip_adduction_l/value	/jointset/hip_l/hip_rotation_l/value	/jointset/back/lumbar_extension/value	/jointset/patellofemoral_l/patellar_flexion_l/value	/jointset/knee_l/knee_flexion_l/value	/jointset/knee_l/knee_adduction_l/value	/jointset/knee_l/knee_rotation_l/value	/jointset/ankle_l/ankle_angle_l/value	/jointset/subtalar_l/subtalar_angle_l/value	/jointset/ground_pelvis/pelvis_tilt/speed	/jointset/ground_pelvis/pelvis_tx/speed	/jointset/ground_pelvis/pelvis_ty/speed	/jointset/hip_l/hip_flexion_l/speed	/jointset/hip_l/hip_adduction_l/speed	/jointset/hip_l/hip_rotation_l/speed	/jointset/back/lumbar_extension/speed	/jointset/patellofemoral_l/patellar_flexion_l/speed	/jointset/knee_l/knee_flexion_l/speed	/jointset/knee_l/knee_adduction_l/speed	/jointset/knee_l/knee_rotation_l/speed	/jointset/ankle_l/ankle_angle_l/speed	/jointset/subtalar_l/subtalar_angle_l/speed	/forceset/tau_hip_flexion_l	/forceset/tau_hip_adduction_l	/forceset/tau_hip_rotation_l	/forceset/tau_knee_flexion_l	/forceset/tau_ankle_angle_l	/forceset/tau_subtalar_angle_l	/forceset/tau_lumbar_extension	lambda_cid13_p0	lambda_cid13_p1	lambda_cid13_p2	lambda_cid13_p3	lambda_cid13_p4	lambda_cid13_p5	lambda_cid14_p0	/jointset/ground_pelvis/pelvis_tilt/accel	/jointset/ground_pelvis/pelvis_tx/accel	/jointset/ground_pelvis/pelvis_ty/accel	/jointset/hip_l/hip_flexion_l/accel	/jointset/hip_l/hip_adduction_l/accel	/jointset/hip_l/hip_rotation_l/accel	/jointset/back/lumbar_extension/accel	/jointset/patellofemoral_l/patellar_flexion_l/accel	/jointset/knee_l/knee_flexion_l/accel	/jointset/knee_l/knee_adduction_l/accel	/jointset/knee_l/knee_rotation_l/accel	/jointset/ankle_l/ankle_angle_l/accel	/jointset/subtalar_l/subtalar_angle_l/accel	gamma_cid13_p0	gamma_cid13_p1	gamma_cid13_p2	gamma_cid13_p3	gamma_cid13_p4	gamma_cid13_p5	gamma_cid14_p0
1	-0.5465035080564089	-0.0778671013184532	0.5665327733999415	1.852072268409968	-0.4670120683856015	0.01720504143297036	-0.261797048712566	1.41391852125521	1.413918521258369	-0.07100002830073154	-0.1745316324054584	0.2342672823034682	-0.001223061107199436	-0.01535337507031444	0.0110573123547348	0.003700424758687258	-0.006879568678981818	-0.002629456646307613	0.002447703789953473	-3.087661242529655e-05	-0.0006570602538115123	-0.0006570602538107648	-0.005596741430975715	1.342295150898623e-06	0.02117049245275991	0.009236221575480907	-0.3352980397460395	0.01209085167278947	0.0006911566384684327	-0.3074837293376234	0.02612980610896734	0.03120203230017559	0.2860069239995404	-31.54353796083088	-8.612481690802083	1.704769181578994	9.854908816801437	-644.450686940021	-50.00220346245072	-0.861270783471768	1.523237763787831	0.1934026681758854	2.006216041556497	-6.872618948323986	-0.07798362221753234	-2.339708274394094	-0.0226996344810559	-5.399259236332074	-5.399259236332334	-0.6523122332993275	-0.03004439330775709	-0.7411191939491787	-0.5089899179283012	3.885113146963351e-09	1.796486421913309e-08	-1.306617132478231e-08	2.703532578980512e-09	-2.136183873417551e-09	2.931027980358494e-08	1.407242385929688e-09
1.01	-0.5465818102515547	-0.07774688605477036	0.5666699379930029	1.851661116210425	-0.4670412461207152	0.01711147843851942	-0.2617974558316571	1.413642142332504	1.413642142335658	-0.07108595844522743	-0.17453173608372	0.2344421394457579	-0.001154686107090187	-0.0003077022825060016	0.01299053329324228	0.02372813207247582	-0.07534190729209968	-0.003204123191066785	-0.02115755777131979	-4.613933952973534e-05	-0.05461342801765716	-0.05461342801767936	-0.01158883643602077	-2.350333470143101e-05	0.01379840459293684	0.004439465192802969	-0.3351610985865597	0.01214792764903342	0.0006780636754362836	-0.307388762010779	0.02610764194554908	0.03122687921076519	0.2859179370818721	-31.53645912256557	-8.630615075054035	1.714631105143868	9.727602881601982	-644.3061453538608	-50.02353833065441	-0.8656621402779258	1.495134872667568	0.1940013058231502	2.000391343518383	-6.831698384593014	-0.04691340857974068	-2.370529925275843	0.009721588120608495	-5.393028840009106	-5.393028840012441	-0.5725948557788766	0.01108954661566056	-0.7356331527442765	-0.4649197654541805	-4.952270957113055e-09	7.401157033125048e-09	2.64921228425391e-08	2.811052005037072e-09	-1.222609383617637e-08	8.098426949168304e-08	-1.120233275832485e-08
1.02	-0.5465096751515442	-0.07760719468187546	0.5670072483126479	1.850565609211394	-0.4670761115688713	0.01678194386279947	-0.2617978833420299	1.412826359073439	1.412826359076589	-0.07123179688410798	-0.17453212937939	0.2345431997953004	-0.001134258924211062	0.01473408396091133	0.01495253419714822	0.04372957007539967	-0.1437505285767109	-0.003766999254811074	-0.04474661246386911	-3.495486880418507e-05	-0.1085379275254348	-0.1085379275254808	-0.01757840030793716	-5.658118696841684e-05	0.006411133903297606	-0.0003533418705404931	-0.3350241574270798	0.01220500362527714	0.0006649707124058957	-0.3072937946839345	0.02608547778213078	0.03125172612135445	0.2858289501642038	-31.53540407189626	-8.647339834742448	1.723864280502824	9.626544539411944	-644.2447636888714	-50.02267985821387	-0.8782793656729428	1.522460454909612	0.1991586612555757	2.000962179383553	-6.861875482622668	-0.07562552601455154	-2.336466900649302	-0.01741019491505516	-5.392885585118474	-5.392885585118914	-0.651806006673592	-0.03169083779068126	-0.7441557599124123	-0.5082000540614025	-1.288274464473906e-08	-1.400816045094851e-09	6.674410035969712e-08	3.317914717283127e-09	-2.216526964505177e-08	1.303574004121803e-07	-2.301049994927054e-08
1.03	-0.5462870922819711	-0.07744771739877415	0.5675443697965991	1.848786429375974	-0.4671164060635467	0.01621675693858459	-0.2617981146144286	1.411471553250738	1.411471553251709	-0.07143746382040272	-0.1745327331805599	0.2345702236932422	-0.00116160556467154	0.02978613753062387	0.01694983831102607	0.06368319338375772	-0.2120614296397636	-0.004274696226460076	-0.06827150438590338	-1.099811657168961e-05	-0.1624118309805538	-0.1624118309805539	-0.02354813644269028	-4.722049655135472e-05	-0.001017355173212648	-0.005100226645478522	-0.3345815402729458	0.0123086818012864	0.0006235334304192686	-0.3070633670472804	0.02612588931835045	0.03136135959653575	0.2855248402391388	-31.4937198933293	-8.717334913717025	1.752251404501144	9.465586327752524	-643.8820198030651	-50.10906101058256	-0.899340928857208	1.497121250512156	0.2010544385006551	1.990825926090384	-6.812100400929155	-0.03577016445305272	-2.357631425919855	0.01234383446502459	-5.382924786973216	-5.382924786966035	-0.5685435540785057	0.01982103343457156	-0.7438460451332357	-0.4555796878884891	-2.08039641444421e-08	-1.018481224466384e-08	1.070031562783841e-07	3.828852361020914e-09	-3.210290735031611e-08	1.797070531819876e-07	-3.481048950803961e-08
1.04	-0.5459138801881989	-0.07726805944412472	0.5682806802175395	1.846324859933366	-0.4671612632042813	0.01541689487756115	-0.2617980972744715	1.409578351981233	1.409578351980026	-0.07170262534548572	-0.1745327290726263	0.2345226325876963	-0.001235950452617112	0.04485992880073982	0.01898866850677436	0.08356735747325525	-0.2802284500141202	-0.004679528466627865	-0.0916816398255124	1.476760256580233e-05	-0.2162170168862571	-0.2162170168862083	-0.02947731806553686	6.500063293257372e-05	-0.008511866794239025	-0.009752991367555978	-0.334138923118812	0.0124123599772944	0.0005820961484323591	-0.3068329394106263	0.02616630085456979	0.0314709930717152	0.2852207303140739	-31.45809693184458	-8.785948788165602	1.780052960283996	9.330751463619105	-643.6029015860173	-50.17383377586889	-0.9291319156886956	1.526807994990296	0.2074638776296595	1.987070335611451	-6.833099344883434	-0.05505257971829992	-2.313515604164246	-0.0170484015340547	-5.37914207523534	-5.379142075235179	-0.6436951042922811	-0.01111874997729151	-0.75736026881564	-0.4893760434892785	-2.748732369984246e-08	-1.628756882029421e-08	1.475479530059266e-07	5.013178331427069e-09	-4.093229057423616e-08	2.25228835358595e-07	-4.523388727765956e-08
1.05	-0.5453898190267957	-0.07706780181337859	0.5692154088486572	1.843182553664434	-0.4672094426440846	0.01438374325363085	-0.2617978566399205	1.407147487600037	1.407147487598678	-0.07202679881236831	-0.1745307891820853	0.2343996614552164	-0.001356137220353877	0.0599547646566577	0.02106996727169929	0.103359196670453	-0.3481860383747517	-0.004915806466144544	-0.1149043567423882	3.07568542950467e-05	-0.2699402945020972	-0.2699402945020485	-0.03534062857506084	0.0003745227503162731	-0.01610326953367559	-0.01424397383666314	-0.3333632626791452	0.01257597884050018	0.0005128312375191754	-0.3064661293068364	0.02624987917393943	0.03166005325748854	0.2846727381869152	-31.3877421815169	-8.903891739843868	1.825716601356288	9.158144937895427	-643.0036338133394	-50.32596097213931	-0.9681176030378253	1.501184884922545	0.2095305762019939	1.972354865554824	-6.770080404306307	-0.001850617553281687	-2.320035025370099	0.01053222052423909	-5.366574649402994	-5.366574649403137	-0.5551584399144749	0.05976674245571847	-0.763167116127779	-0.4229197022435653	-3.413200013198337e-08	-2.230653665767652e-08	1.881016791337458e-07	6.218547687041608e-09	-4.972704084561421e-08	2.706309965791649e-07	-5.561426655386862e-08
1.06	-0.5447147368060271	-0.0768465176549276	0.570347478702503	1.839362073147365	-0.4672587719053802	0.01311968740254793	-0.2617975341864533	1.404179859633753	1.404179859632243	-0.07240910726747224	-0.1745241982603667	0.2342001489274182	-0.001520025883506153	0.07506414067377616	0.02319397404774752	0.1230356020188872	-0.4158632996415152	-0.004909492765058574	-0.1378624852560985	3.11313859373489e-05	-0.3235697339037234	-0.3235697339036768	-0.04110431570986571	0.000995206862080468	-0.02382014585791668	-0.01849337045065564	-0.3325876022394785	0.01273959770370627	0.0004435663266080922	-0.3060993192030463	0.0263334574933092	0.03184911344326231	0.2841247460597565	-31.32350876341248	-9.020408802143884	1.870748572985768	9.011658259040393	-642.4887627688461	-50.4576880755869	-1.016824649167754	1.529716027230411	0.2160054798543208	1.963983565858717	-6.777033926109827	-0.006534239597783085	-2.260597923531165	-0.02017134555144716	-5.360374432392556	-5.360374432392811	-0.6237704293484678	0.05111364889878252	-0.7824549857765429	-0.4410588724663637	-4.202007885254056e-08	-3.131472258052329e-08	2.269090096730158e-07	7.098996630189492e-09	-5.908063283664361e-08	3.149506934254709e-07	-6.664705146522311e-08
